<svg width="20" height="20" viewBox="0 0 20 20" fill="none" xmlns="http://www.w3.org/2000/svg">
<path d="M13.9231 19V15.6871C13.9577 15.2789 13.8982 14.8685 13.7486 14.4833C13.599 14.0981 13.3627 13.7468 13.0554 13.4528C15.9538 13.1532 19 12.1345 19 7.46044C18.9998 6.26524 18.504 5.11588 17.6154 4.25025C18.0362 3.20459 18.0064 2.04878 17.5323 1.02294C17.5323 1.02294 16.4431 0.723319 13.9231 2.28989C11.8074 1.75813 9.57722 1.75813 7.46154 2.28989C4.94154 0.723319 3.85231 1.02294 3.85231 1.02294C3.37819 2.04878 3.34844 3.20459 3.76923 4.25025C2.87396 5.12231 2.37771 6.28205 2.38462 7.48612C2.38462 12.1259 5.43077 13.1446 8.32923 13.4785C8.02554 13.7695 7.79132 14.1166 7.64182 14.4971C7.49233 14.8776 7.4309 15.2831 7.46154 15.6871V19M7.46154 16.4318C2.84615 17.7159 2.84615 14.2917 1 13.8637L7.46154 16.4318Z" stroke="#CE79EF" stroke-width="2" stroke-linecap="round" stroke-linejoin="round"/>
</svg>
