<svg width="14" height="17" viewBox="0 0 14 17" fill="none" xmlns="http://www.w3.org/2000/svg">
<path d="M9.70362 16.0962V13.3177C9.72694 12.9754 9.68689 12.6312 9.58613 12.3081C9.48538 11.985 9.32622 11.6904 9.11924 11.4439C11.0713 11.1926 13.1229 10.3382 13.1229 6.41821C13.1227 5.41583 12.7889 4.45189 12.1904 3.7259C12.4738 2.84893 12.4537 1.87959 12.1344 1.01924C12.1344 1.01924 11.4008 0.767954 9.70362 2.0818C8.27872 1.63583 6.77671 1.63583 5.35181 2.0818C3.65461 0.767954 2.92101 1.01924 2.92101 1.01924C2.6017 1.87959 2.58166 2.84893 2.86506 3.7259C2.2621 4.45728 1.92788 5.42993 1.93253 6.43975C1.93253 10.331 3.9841 11.1854 5.9362 11.4654C5.73166 11.7095 5.57392 12.0006 5.47323 12.3197C5.37255 12.6388 5.33118 12.9789 5.35181 13.3177V16.0962M5.35181 13.9423C2.24337 15.0192 2.24337 12.1474 1 11.7885L5.35181 13.9423Z" stroke="#FAFAFA" stroke-width="1.4359" stroke-linecap="round" stroke-linejoin="round"/>
</svg>
