<svg width="40" height="40" viewBox="0 0 40 40" fill="none" xmlns="http://www.w3.org/2000/svg">
<circle cx="20" cy="20" r="20" fill="url(#paint0_linear_2_28)"/>
<circle cx="20" cy="20" r="16" fill="#D3D7DC"/>
<path d="M19.2 25.6C22.7347 25.6 25.6 22.7347 25.6 19.2C25.6 15.6654 22.7347 12.8 19.2 12.8C15.6654 12.8 12.8 15.6654 12.8 19.2C12.8 22.7347 15.6654 25.6 19.2 25.6Z" stroke="black" stroke-width="1.6" stroke-linecap="round" stroke-linejoin="round"/>
<path d="M27.2 27.2L23.72 23.72" stroke="black" stroke-width="1.6" stroke-linecap="round" stroke-linejoin="round"/>
<path d="M19.2 25.6C22.7347 25.6 25.6 22.7347 25.6 19.2C25.6 15.6654 22.7347 12.8 19.2 12.8C15.6654 12.8 12.8 15.6654 12.8 19.2C12.8 22.7347 15.6654 25.6 19.2 25.6Z" stroke="black" stroke-width="1.6" stroke-linecap="round" stroke-linejoin="round"/>
<path d="M27.2 27.2L23.72 23.72" stroke="black" stroke-width="1.6" stroke-linecap="round" stroke-linejoin="round"/>
<defs>
<linearGradient id="paint0_linear_2_28" x1="4.4" y1="-1.11075e-07" x2="20" y2="40" gradientUnits="userSpaceOnUse">
<stop stop-color="#9E4ECC"/>
<stop offset="0.889182" stop-color="#13B0E8"/>
</linearGradient>
</defs>
</svg>
